<?xml version="1.0"?>
<svg stroke-width="0.501" stroke-linejoin="bevel" fill-rule="evenodd" xmlns:xlink="http://www.w3.org/1999/xlink" xmlns="http://www.w3.org/2000/svg" version="1.1" overflow="visible" width="165pt" height="165pt" viewBox="0 0 165 165">
 <defs>
  <marker id="DefaultArrow2" markerUnits="strokeWidth" viewBox="0 0 1 1" markerWidth="1" markerHeight="1" overflow="visible" orient="auto">
   <!-- REF_ARROW_STRAIGHT (-2) -->
   <g transform="scale(0.0092592592)">
    <!-- 1/108 -->
    <path d="M -9 54 L -9 -54 L 117 0 z"/>
   </g>
  </marker>
  <marker id="DefaultArrow3" markerUnits="strokeWidth" viewBox="0 0 1 1" markerWidth="1" markerHeight="1" overflow="visible" orient="auto">
   <!-- REF_ARROW_ANGLED -->
   <g transform="scale(0.0092592592)">
    <path d="M -27 54 L -9 0 L -27 -54 L 135 0 z"/>
   </g>
  </marker>
  <marker id="DefaultArrow4" markerUnits="strokeWidth" viewBox="0 0 1 1" markerWidth="1" markerHeight="1" overflow="visible" orient="auto">
   <!-- REF_ARROW_ROUNDED -->
   <g transform="scale(0.0092592592)">
    <path d="M -9,0 L -9,-45 C -9,-51.708 2.808,-56.580 9,-54 L 117,-9 C 120.916,-7.369 126.000,-4.242 126,0 C 126,4.242 120.916,7.369 117,9 L 9,54 C 2.808,56.580 -9,51.708 -9,45 z"/>
   </g>
  </marker>
  <marker id="DefaultArrow5" markerUnits="strokeWidth" viewBox="0 0 1 1" markerWidth="1" markerHeight="1" overflow="visible" orient="auto">
   <!-- REF_ARROW_SPOT -->
   <g transform="scale(0.0092592592)">
    <path d="M -54, 0 C -54,29.807 -29.807,54 0,54 C 29.807,54 54,29.807 54,0 C 54,-29.807 29.807,-54 0,-54 C -29.807,-54 -54,-29.807 -54,0 z"/>
   </g>
  </marker>
  <marker id="DefaultArrow6" markerUnits="strokeWidth" viewBox="0 0 1 1" markerWidth="1" markerHeight="1" overflow="visible" orient="auto">
   <!-- REF_ARROW_DIAMOND -->
   <g transform="scale(0.0092592592)">
    <path d="M -63,0 L 0,63 L 63,0 L 0,-63 z"/>
   </g>
  </marker>
  <marker id="DefaultArrow7" markerUnits="strokeWidth" viewBox="0 0 1 1" markerWidth="1" markerHeight="1" overflow="visible" orient="auto">
   <!-- REF_ARROW_FEATHER -->
   <g transform="scale(0.0092592592)">
    <path d="M 18,-54 L 108,-54 L 63,0 L 108,54 L 18, 54 L -36,0 z"/>
   </g>
  </marker>
  <marker id="DefaultArrow8" markerUnits="strokeWidth" viewBox="0 0 1 1" markerWidth="1" markerHeight="1" overflow="visible" orient="auto">
   <!-- REF_ARROW_FEATHER2 -->
   <g transform="scale(0.0092592592)">
    <path d="M -36,0 L 18,-54 L 54,-54 L 18,-18 L 27,-18 L 63,-54 L 99,-54 L 63,-18 L 72,-18 L 108,-54 L 144,-54 L 90,0 L 144,54 L 108,54 L 72,18 L 63,18 L 99,54 L 63,54 L 27,18 L 18,18 L 54,54 L 18,54 z"/>
   </g>
  </marker>
  <marker id="DefaultArrow9" markerUnits="strokeWidth" viewBox="0 0 1 1" markerWidth="1" markerHeight="1" overflow="visible" orient="auto">
   <!-- REF_ARROW_HOLLOWDIAMOND -->
   <g transform="scale(0.0092592592)">
    <path d="M 0,45 L -45,0 L 0, -45 L 45, 0 z M 0, 63 L-63, 0 L 0, -63 L 63, 0 z"/>
   </g>
  </marker>
  <filter id="StainedFilter">
   <feBlend mode="multiply" in2="BackgroundImage" in="SourceGraphic" result="blend"/>
   <feComposite in="blend" in2="SourceAlpha" operator="in" result="comp"/>
  </filter>
  <filter id="BleachFilter">
   <feBlend mode="screen" in2="BackgroundImage" in="SourceGraphic" result="blend"/>
   <feComposite in="blend" in2="SourceAlpha" operator="in" result="comp"/>
  </filter>
  <filter id="InvertTransparencyBitmapFilter">
   <feComponentTransfer>
    <feFuncR type="gamma" amplitude="1.055" exponent=".416666666" offset="-0.055"/>
    <feFuncG type="gamma" amplitude="1.055" exponent=".416666666" offset="-0.055"/>
    <feFuncB type="gamma" amplitude="1.055" exponent=".416666666" offset="-0.055"/>
   </feComponentTransfer>
   <feComponentTransfer>
    <feFuncR type="linear" slope="-1" intercept="1"/>
    <feFuncG type="linear" slope="-1" intercept="1"/>
    <feFuncB type="linear" slope="-1" intercept="1"/>
    <feFuncA type="linear" slope="1" intercept="0"/>
   </feComponentTransfer>
   <feComponentTransfer>
    <feFuncR type="gamma" amplitude="1" exponent="2.4" offset="0"/>
    <feFuncG type="gamma" amplitude="1" exponent="2.4" offset="0"/>
    <feFuncB type="gamma" amplitude="1" exponent="2.4" offset="0"/>
   </feComponentTransfer>
  </filter>
 </defs>
 <g id="Document" fill="none" stroke="black" font-family="Times New Roman" font-size="16" transform="scale(1 -1)">
  <g id="Spread" transform="translate(0 -165)">
   <g id="Layer_2">
    <path d="M 9.638,74.321 C 13.178,75.821 17.01,81.644 19.169,85.711 C 25.216,97.102 36.044,107.18 48.231,108.82 L 50.523,101.513 C 40.707,97.712 31.613,81.588 31.519,69.494 C 31.742,59.724 39.353,49.556 47.457,43.338 C 55.52,37.151 65.904,33.97 73.974,32.32 L 77.075,23.957 C 63.012,25.644 49.773,28.61 38.57,35.889 C 29.269,41.932 18.812,50.984 17.378,62.801 C 13.806,65.4 10.718,69.641 9.638,74.321 Z" fill="#001846" stroke="none" stroke-width="0.188" stroke-linejoin="miter" stroke-linecap="round" marker-start="none" marker-end="none" stroke-miterlimit="79.8403193612775"/>
    <path d="M 34.778,62.861 L 52.461,95.241 L 58.298,79.121 L 54.218,72.041 L 97.417,72.221 L 94.117,63.341 L 49.298,63.281 L 42.458,50.981 C 39.098,54.641 36.698,57.881 34.778,62.861 Z" fill="#001846" stroke="none" stroke-linejoin="miter" stroke-width="0.188" stroke-linecap="round" marker-start="none" marker-end="none" stroke-miterlimit="79.8403193612775"/>
    <path d="M 29.138,146.62 C 33.578,143.74 38.738,137.14 42.851,131.335 L 62.094,74.5 L 72.851,74.5 L 55.273,133.561 C 54.278,141.16 53.595,151.71 53.318,156.94 C 51.555,155.61 46.838,151.48 40.838,149.74 C 37.295,148.319 32.927,149.611 29.138,146.62 Z" fill="#001846" stroke="none" stroke-linejoin="miter" stroke-linecap="round" stroke-width="0.188" marker-start="none" marker-end="none" stroke-miterlimit="79.8403193612775"/>
    <path d="M 62.926,114.868 L 68.457,97.056 L 84.675,125.931 L 89.224,115.981 C 94.286,115.981 101.186,115.344 105.862,114.118 L 86.925,158.931 L 62.926,114.868 Z" fill="#001846" stroke="none" stroke-linejoin="miter" stroke-linecap="round" stroke-width="0.188" marker-start="none" marker-end="none" stroke-miterlimit="79.8403193612775"/>
    <path d="M 93.739,105.673 L 121.004,41.884 C 125.557,43.421 130.297,45.581 133.904,47.734 L 109.379,102.558 C 104.879,104.133 99.254,105.258 93.739,105.673 Z" fill="#001846" stroke="none" stroke-linejoin="miter" stroke-linecap="round" stroke-width="0.188" marker-start="none" marker-end="none" stroke-miterlimit="79.8403193612775"/>
    <path d="M 125.55,31.338 L 128.643,24.119 L 127.143,4.713 L 149.362,19.994 C 147.277,23.381 142.957,26.561 140.737,30.701 L 137.497,38.501 C 133.717,35.741 129.337,33.521 125.55,31.338 Z" fill="#001846" stroke="none" stroke-linejoin="miter" stroke-linecap="round" stroke-width="0.188" marker-start="none" marker-end="none" stroke-miterlimit="79.8403193612775"/>
    <path d="M 66.7,60.962 L 85.262,6.212 L 108.768,64.713 L 102.581,78.682 L 85.237,34.994 L 77.176,60.963 L 66.7,60.962 Z" fill="#001846" stroke="none" stroke-linejoin="miter" stroke-linecap="round" stroke-width="0.188" marker-start="none" marker-end="none" stroke-miterlimit="79.8403193612775"/>
    <path d="M 98.186,32.957 C 97.436,30.295 96.161,27.482 94.637,24.024 C 114.98,27.54 129.066,33.502 143.129,45.709 L 143.246,51.259 C 133.721,43.009 111.461,35.882 98.186,32.957 Z" fill="#001846" stroke="none" stroke-linejoin="miter" stroke-linecap="round" stroke-width="0.188" marker-start="none" marker-end="none" stroke-miterlimit="79.8403193612775"/>
    <path d="M 24.769,44.182 L 17.95,31.618 L 9.559,23.743 C 16.919,19.899 23.106,15.587 29.269,11.557 C 28.356,17.181 28.028,20.79 27.957,25.15 L 34.122,36.259 C 30.794,38.884 28.075,40.946 24.769,44.182 Z" fill="#001846" stroke="none" stroke-linejoin="miter" stroke-linecap="round" stroke-width="0.188" marker-start="none" marker-end="none" stroke-miterlimit="79.8403193612775"/>
    <path d="M 76.958,108.04 L 80.294,113.789 C 91.215,114.07 99.84,113.883 112.684,110.461 L 110.317,104.74 C 98.34,108.68 87.043,108.539 76.958,108.04 Z" fill="#001846" stroke="none" stroke-linejoin="miter" stroke-linecap="round" stroke-width="0.188" marker-start="none" marker-end="none" stroke-miterlimit="79.8403193612775"/>
    <path d="M 111.937,102.64 C 117.341,117.11 123.793,133.57 124.871,139.242 C 125.402,144.235 125.762,152.227 125.668,156.633 L 139.754,142.983 L 118.117,88.72 L 111.937,102.64 Z" fill="#001846" stroke="none" stroke-linejoin="miter" stroke-linecap="round" stroke-width="0.188" marker-start="none" marker-end="none" stroke-miterlimit="79.8403193612775"/>
    <path d="M 127.057,105.1 L 124.357,98.08 C 131.557,93.82 135.413,88.719 139.853,83.679 L 141.383,83.649 L 141.337,101.08 C 136.057,101.8 132.037,103.36 127.057,105.1 Z" fill="#001846" stroke="none" stroke-linejoin="miter" stroke-linecap="round" stroke-width="0.188" marker-start="none" marker-end="none" stroke-miterlimit="79.8403193612775"/>
   </g>
  </g>
 </g>
</svg>
